<svg width="293" height="48" viewBox="0 0 293 48" fill="none" xmlns="http://www.w3.org/2000/svg">
<path d="M0 13.971C0 13.4417 0.258538 12.9457 0.692489 12.6425L16.2416 1.78035C17.3158 1.02996 18.7902 1.7985 18.7902 3.10883V19.7497L9.49485 13.1263V45.9999H1.62053C0.725536 45.9999 0 45.2744 0 44.3794V13.971Z" fill="#111111"/>
<path d="M18.7904 19.7703L27.5396 26.1868C27.9558 26.4921 28.2017 26.9774 28.2017 27.4936V44.3795C28.2017 45.2745 27.4762 46 26.5812 46H20.411C19.516 46 18.7904 45.2745 18.7904 44.3795V19.7703Z" fill="#FF3D3D"/>
<path d="M42.0068 40.6599V18.2599H50.2308C52.0228 18.2599 53.4948 18.5692 54.6468 19.1879C55.8201 19.7852 56.6948 20.6066 57.2708 21.6519C57.8468 22.6759 58.1348 23.8172 58.1348 25.0759C58.1348 26.4412 57.7721 27.6892 57.0468 28.8199C56.3428 29.9506 55.2334 30.7719 53.7188 31.2839L58.3588 40.6599H53.6548L49.4948 31.8279H46.1028V40.6599H42.0068ZM46.1028 28.8199H49.9748C51.3401 28.8199 52.3428 28.4892 52.9828 27.8279C53.6228 27.1666 53.9428 26.2919 53.9428 25.2039C53.9428 24.1372 53.6228 23.2839 52.9828 22.6439C52.3641 22.0039 51.3508 21.6839 49.9428 21.6839H46.1028V28.8199ZM66.7265 41.0439C65.3612 41.0439 64.2412 40.8306 63.3665 40.4039C62.4919 39.9559 61.8412 39.3692 61.4145 38.6439C60.9879 37.9186 60.7745 37.1186 60.7745 36.2439C60.7745 34.7719 61.3505 33.5772 62.5025 32.6599C63.6545 31.7426 65.3825 31.2839 67.6865 31.2839H71.7185V30.8999C71.7185 29.8119 71.4092 29.0119 70.7905 28.4999C70.1719 27.9879 69.4039 27.7319 68.4865 27.7319C67.6545 27.7319 66.9292 27.9346 66.3105 28.3399C65.6919 28.7239 65.3079 29.2999 65.1585 30.0679H61.1585C61.2652 28.9159 61.6492 27.9132 62.3105 27.0599C62.9932 26.2066 63.8679 25.5559 64.9345 25.1079C66.0012 24.6386 67.1959 24.4039 68.5185 24.4039C70.7799 24.4039 72.5612 24.9692 73.8625 26.0999C75.1639 27.2306 75.8145 28.8306 75.8145 30.8999V40.6599H72.3265L71.9425 38.0999C71.4732 38.9532 70.8119 39.6572 69.9585 40.2119C69.1265 40.7666 68.0492 41.0439 66.7265 41.0439ZM67.6545 37.8439C68.8279 37.8439 69.7345 37.4599 70.3745 36.6919C71.0359 35.9239 71.4519 34.9746 71.6225 33.8439H68.1345C67.0465 33.8439 66.2679 34.0466 65.7985 34.4519C65.3292 34.8359 65.0945 35.3159 65.0945 35.8919C65.0945 36.5106 65.3292 36.9906 65.7985 37.3319C66.2679 37.6732 66.8865 37.8439 67.6545 37.8439ZM81.9953 22.3239C81.2486 22.3239 80.6299 22.0999 80.1393 21.6519C79.6699 21.2039 79.4353 20.6386 79.4353 19.9559C79.4353 19.2732 79.6699 18.7186 80.1393 18.2919C80.6299 17.8439 81.2486 17.6199 81.9953 17.6199C82.7419 17.6199 83.3499 17.8439 83.8193 18.2919C84.3099 18.7186 84.5553 19.2732 84.5553 19.9559C84.5553 20.6386 84.3099 21.2039 83.8193 21.6519C83.3499 22.0999 82.7419 22.3239 81.9953 22.3239ZM76.7153 47.6999V44.2119H77.9633C78.6673 44.2119 79.1686 44.0732 79.4673 43.7959C79.7659 43.5186 79.9153 43.0492 79.9153 42.3879V24.7879H84.0113V42.3879C84.0113 44.3079 83.5206 45.6732 82.5393 46.4839C81.5793 47.2946 80.2673 47.6999 78.6033 47.6999H76.7153ZM93.7578 41.0439C92.3924 41.0439 91.2724 40.8306 90.3978 40.4039C89.5231 39.9559 88.8724 39.3692 88.4458 38.6439C88.0191 37.9186 87.8058 37.1186 87.8058 36.2439C87.8058 34.7719 88.3818 33.5772 89.5338 32.6599C90.6858 31.7426 92.4138 31.2839 94.7178 31.2839H98.7498V30.8999C98.7498 29.8119 98.4404 29.0119 97.8218 28.4999C97.2031 27.9879 96.4351 27.7319 95.5178 27.7319C94.6858 27.7319 93.9604 27.9346 93.3418 28.3399C92.7231 28.7239 92.3391 29.2999 92.1898 30.0679H88.1898C88.2964 28.9159 88.6804 27.9132 89.3418 27.0599C90.0244 26.2066 90.8991 25.5559 91.9658 25.1079C93.0324 24.6386 94.2271 24.4039 95.5498 24.4039C97.8111 24.4039 99.5924 24.9692 100.894 26.0999C102.195 27.2306 102.846 28.8306 102.846 30.8999V40.6599H99.3578L98.9738 38.0999C98.5044 38.9532 97.8431 39.6572 96.9898 40.2119C96.1578 40.7666 95.0804 41.0439 93.7578 41.0439ZM94.6858 37.8439C95.8591 37.8439 96.7658 37.4599 97.4058 36.6919C98.0671 35.9239 98.4831 34.9746 98.6538 33.8439H95.1658C94.0778 33.8439 93.2991 34.0466 92.8298 34.4519C92.3604 34.8359 92.1258 35.3159 92.1258 35.8919C92.1258 36.5106 92.3604 36.9906 92.8298 37.3319C93.2991 37.6732 93.9178 37.8439 94.6858 37.8439Z" fill="#FF3D3D"/>
<path d="M114.476 40.6599V18.2599H122.124C124.748 18.2599 126.902 18.7292 128.588 19.6679C130.294 20.5852 131.553 21.8866 132.364 23.5719C133.196 25.2359 133.612 27.1986 133.612 29.4599C133.612 31.7212 133.196 33.6946 132.364 35.3799C131.553 37.0439 130.294 38.3452 128.588 39.2839C126.902 40.2012 124.748 40.6599 122.124 40.6599H114.476ZM118.572 37.1399H121.932C123.809 37.1399 125.292 36.8412 126.38 36.2439C127.468 35.6252 128.246 34.7506 128.716 33.6199C129.185 32.4679 129.42 31.0812 129.42 29.4599C129.42 27.8599 129.185 26.4839 128.716 25.3319C128.246 24.1799 127.468 23.2946 126.38 22.6759C125.292 22.0572 123.809 21.7479 121.932 21.7479H118.572V37.1399ZM144.842 41.0439C143.242 41.0439 141.823 40.7026 140.586 40.0199C139.348 39.3372 138.378 38.3772 137.674 37.1399C136.97 35.9026 136.618 34.4732 136.618 32.8519C136.618 31.2092 136.959 29.7479 137.642 28.4679C138.346 27.1879 139.306 26.1959 140.522 25.4919C141.759 24.7666 143.21 24.4039 144.874 24.4039C146.431 24.4039 147.807 24.7452 149.002 25.4279C150.196 26.1106 151.124 27.0492 151.786 28.2439C152.468 29.4172 152.81 30.7292 152.81 32.1799C152.81 32.4146 152.799 32.6599 152.778 32.9159C152.778 33.1719 152.767 33.4386 152.746 33.7159H140.682C140.767 34.9532 141.194 35.9239 141.962 36.6279C142.751 37.3319 143.7 37.6839 144.81 37.6839C145.642 37.6839 146.335 37.5026 146.89 37.1399C147.466 36.7559 147.892 36.2652 148.17 35.6679H152.33C152.031 36.6706 151.53 37.5879 150.826 38.4199C150.143 39.2306 149.29 39.8706 148.266 40.3399C147.263 40.8092 146.122 41.0439 144.842 41.0439ZM144.874 27.7319C143.871 27.7319 142.986 28.0199 142.218 28.5959C141.45 29.1506 140.959 30.0039 140.746 31.1559H148.65C148.586 30.1106 148.202 29.2786 147.498 28.6599C146.794 28.0412 145.919 27.7319 144.874 27.7319ZM159.918 40.6599L154.094 24.7879H158.382L162.414 36.7879L166.446 24.7879H170.734L164.878 40.6599H159.918ZM180.248 41.0439C178.648 41.0439 177.229 40.7026 175.992 40.0199C174.754 39.3372 173.784 38.3772 173.08 37.1399C172.376 35.9026 172.024 34.4732 172.024 32.8519C172.024 31.2092 172.365 29.7479 173.048 28.4679C173.752 27.1879 174.712 26.1959 175.928 25.4919C177.165 24.7666 178.616 24.4039 180.28 24.4039C181.837 24.4039 183.213 24.7452 184.408 25.4279C185.602 26.1106 186.53 27.0492 187.192 28.2439C187.874 29.4172 188.216 30.7292 188.216 32.1799C188.216 32.4146 188.205 32.6599 188.184 32.9159C188.184 33.1719 188.173 33.4386 188.152 33.7159H176.088C176.173 34.9532 176.6 35.9239 177.368 36.6279C178.157 37.3319 179.106 37.6839 180.216 37.6839C181.048 37.6839 181.741 37.5026 182.296 37.1399C182.872 36.7559 183.298 36.2652 183.576 35.6679H187.736C187.437 36.6706 186.936 37.5879 186.232 38.4199C185.549 39.2306 184.696 39.8706 183.672 40.3399C182.669 40.8092 181.528 41.0439 180.248 41.0439ZM180.28 27.7319C179.277 27.7319 178.392 28.0199 177.624 28.5959C176.856 29.1506 176.365 30.0039 176.152 31.1559H184.056C183.992 30.1106 183.608 29.2786 182.904 28.6599C182.2 28.0412 181.325 27.7319 180.28 27.7319ZM191.661 40.6599V17.6199H195.757V40.6599H191.661ZM207.558 41.0439C206.022 41.0439 204.635 40.6919 203.398 39.9879C202.182 39.2839 201.211 38.3132 200.486 37.0759C199.782 35.8172 199.43 34.3666 199.43 32.7239C199.43 31.0812 199.793 29.6412 200.518 28.4039C201.243 27.1452 202.214 26.1639 203.43 25.4599C204.667 24.7559 206.054 24.4039 207.59 24.4039C209.105 24.4039 210.47 24.7559 211.686 25.4599C212.923 26.1639 213.894 27.1452 214.598 28.4039C215.323 29.6412 215.686 31.0812 215.686 32.7239C215.686 34.3666 215.323 35.8172 214.598 37.0759C213.894 38.3132 212.923 39.2839 211.686 39.9879C210.449 40.6919 209.073 41.0439 207.558 41.0439ZM207.558 37.4919C208.625 37.4919 209.553 37.0972 210.342 36.3079C211.131 35.4972 211.526 34.3026 211.526 32.7239C211.526 31.1452 211.131 29.9612 210.342 29.1719C209.553 28.3612 208.635 27.9559 207.59 27.9559C206.502 27.9559 205.563 28.3612 204.774 29.1719C204.006 29.9612 203.622 31.1452 203.622 32.7239C203.622 34.3026 204.006 35.4972 204.774 36.3079C205.563 37.0972 206.491 37.4919 207.558 37.4919ZM219.348 47.6999V24.7879H222.996L223.444 27.0599C223.956 26.3559 224.628 25.7372 225.46 25.2039C226.314 24.6706 227.412 24.4039 228.756 24.4039C230.25 24.4039 231.583 24.7666 232.756 25.4919C233.93 26.2172 234.858 27.2092 235.54 28.4679C236.223 29.7266 236.564 31.1559 236.564 32.7559C236.564 34.3559 236.223 35.7852 235.54 37.0439C234.858 38.2812 233.93 39.2626 232.756 39.9879C231.583 40.6919 230.25 41.0439 228.756 41.0439C227.562 41.0439 226.516 40.8199 225.62 40.3719C224.724 39.9239 223.999 39.2946 223.444 38.4839V47.6999H219.348ZM227.892 37.4599C229.194 37.4599 230.271 37.0226 231.124 36.1479C231.978 35.2732 232.404 34.1426 232.404 32.7559C232.404 31.3692 231.978 30.2279 231.124 29.3319C230.271 28.4359 229.194 27.9879 227.892 27.9879C226.57 27.9879 225.482 28.4359 224.628 29.3319C223.796 30.2066 223.38 31.3372 223.38 32.7239C223.38 34.1106 223.796 35.2519 224.628 36.1479C225.482 37.0226 226.57 37.4599 227.892 37.4599ZM247.935 41.0439C246.335 41.0439 244.917 40.7026 243.679 40.0199C242.442 39.3372 241.471 38.3772 240.767 37.1399C240.063 35.9026 239.711 34.4732 239.711 32.8519C239.711 31.2092 240.053 29.7479 240.735 28.4679C241.439 27.1879 242.399 26.1959 243.615 25.4919C244.853 24.7666 246.303 24.4039 247.967 24.4039C249.525 24.4039 250.901 24.7452 252.095 25.4279C253.29 26.1106 254.218 27.0492 254.879 28.2439C255.562 29.4172 255.903 30.7292 255.903 32.1799C255.903 32.4146 255.893 32.6599 255.871 32.9159C255.871 33.1719 255.861 33.4386 255.839 33.7159H243.775C243.861 34.9532 244.287 35.9239 245.055 36.6279C245.845 37.3319 246.794 37.6839 247.903 37.6839C248.735 37.6839 249.429 37.5026 249.983 37.1399C250.559 36.7559 250.986 36.2652 251.263 35.6679H255.423C255.125 36.6706 254.623 37.5879 253.919 38.4199C253.237 39.2306 252.383 39.8706 251.359 40.3399C250.357 40.8092 249.215 41.0439 247.935 41.0439ZM247.967 27.7319C246.965 27.7319 246.079 28.0199 245.311 28.5959C244.543 29.1506 244.053 30.0039 243.839 31.1559H251.743C251.679 30.1106 251.295 29.2786 250.591 28.6599C249.887 28.0412 249.013 27.7319 247.967 27.7319ZM259.348 40.6599V24.7879H262.996L263.38 27.7639C263.956 26.7399 264.735 25.9292 265.716 25.3319C266.719 24.7132 267.892 24.4039 269.236 24.4039V28.7239H268.084C267.188 28.7239 266.388 28.8626 265.684 29.1399C264.98 29.4172 264.426 29.8972 264.02 30.5799C263.636 31.2626 263.444 32.2119 263.444 33.4279V40.6599H259.348ZM278.596 41.0439C277.188 41.0439 275.95 40.8199 274.884 40.3719C273.817 39.9026 272.964 39.2626 272.324 38.4519C271.684 37.6412 271.3 36.7026 271.172 35.6359H275.3C275.428 36.2546 275.769 36.7879 276.324 37.2359C276.9 37.6626 277.636 37.8759 278.532 37.8759C279.428 37.8759 280.078 37.6946 280.484 37.3319C280.91 36.9692 281.124 36.5532 281.124 36.0839C281.124 35.4012 280.825 34.9426 280.228 34.7079C279.63 34.4519 278.798 34.2066 277.732 33.9719C277.049 33.8226 276.356 33.6412 275.652 33.4279C274.948 33.2146 274.297 32.9479 273.7 32.6279C273.124 32.2866 272.654 31.8599 272.292 31.3479C271.929 30.8146 271.748 30.1639 271.748 29.3959C271.748 27.9879 272.302 26.8039 273.412 25.8439C274.542 24.8839 276.121 24.4039 278.148 24.4039C280.025 24.4039 281.518 24.8412 282.628 25.7159C283.758 26.5906 284.43 27.7959 284.644 29.3319H280.772C280.537 28.1586 279.652 27.5719 278.116 27.5719C277.348 27.5719 276.75 27.7212 276.324 28.0199C275.918 28.3186 275.716 28.6919 275.716 29.1399C275.716 29.6092 276.025 29.9826 276.644 30.2599C277.262 30.5372 278.084 30.7932 279.108 31.0279C280.217 31.2839 281.23 31.5719 282.148 31.8919C283.086 32.1906 283.833 32.6492 284.388 33.2679C284.942 33.8652 285.22 34.7292 285.22 35.8599C285.241 36.8412 284.985 37.7266 284.452 38.5159C283.918 39.3052 283.15 39.9239 282.148 40.3719C281.145 40.8199 279.961 41.0439 278.596 41.0439Z" fill="#111111"/>
</svg>
